<?xml version="1.0" encoding="utf-8"?>
<!-- Generator: Adobe Illustrator 16.0.0, SVG Export Plug-In . SVG Version: 6.00 Build 0)  -->
<!DOCTYPE svg PUBLIC "-//W3C//DTD SVG 1.1//EN" "http://www.w3.org/Graphics/SVG/1.1/DTD/svg11.dtd">
<svg version="1.1" id="Capa_1" xmlns="http://www.w3.org/2000/svg" xmlns:xlink="http://www.w3.org/1999/xlink" x="0px" y="0px"
	 width="120px" height="120px" viewBox="0 0 256 256" enable-background="new 0 0 256 256" xml:space="preserve">
<g opacity="0.05">
	<g>
		<g>
			<defs>
				<rect id="SVGID_1_" x="10.642" y="8.483" width="234.586" height="234.618"/>
			</defs>
			<clipPath id="SVGID_2_">
				<use xlink:href="#SVGID_1_"  overflow="visible"/>
			</clipPath>
			<path clip-path="url(#SVGID_2_)" fill="#466982" d="M245.228,125.791c0,64.781-52.516,117.295-117.295,117.295
				c-64.776,0-117.291-52.516-117.291-117.295C10.642,61.014,63.156,8.5,127.932,8.5C192.714,8.5,245.228,61.014,245.228,125.791"/>
		</g>
	</g>
</g>
<path fill="none" stroke="#466982" stroke-width="9" stroke-miterlimit="10" d="M246.434,126.998
	c0,65.446-53.054,118.502-118.5,118.502C62.49,245.5,9.435,192.443,9.435,126.998c0-65.444,53.054-118.499,118.499-118.499
	C193.38,8.5,246.434,61.554,246.434,126.998z"/>
<path fill="#466982" d="M149.083,46.905c1.858,0.391,3.745,0.683,5.575,1.187c22.521,6.195,31.743,32.979,17.781,51.684
	c-0.732,0.983-0.781,1.628-0.203,2.707c7.577,14.092,2.49,31.674-11.484,39.582c-1.234,0.701-1.559,1.457-1.553,2.782
	c0.044,14.357,0.006,28.715,0.04,43.069c0.006,3.876-1.247,7.156-4.068,9.848c-1.493,1.427-2.909,2.933-4.392,4.373
	c-2.885,2.798-6.797,2.769-9.673-0.063c-1.581-1.559-3.145-3.135-4.709-4.714c-3.057-3.093-3.072-6.909-0.006-9.984
	c0.509-0.508,1.134-0.888,1.823-1.43c-2.163-2.102-4.101-3.88-4.085-6.853c0.019-2.926,1.9-4.672,3.868-6.572
	c-1.912-1.869-3.871-3.634-3.868-6.607c0.003-2.976,1.936-4.754,3.965-6.715c-5.388-3.876-5.747-9.448-5.316-15.162
	c-2.906,0.626-5.593,1.316-8.319,1.763c-3.882,0.643-7.727,0.178-11.479-0.939c-0.972-0.29-1.559-0.106-2.272,0.605
	c-10.27,10.325-20.592,20.595-30.863,30.923c-2.748,2.763-5.985,4.109-9.859,4.043c-2.018-0.028-4.032,0.031-6.046-0.013
	c-4.025-0.08-6.792-2.861-6.85-6.862c-0.038-2.274-0.024-4.548-0.003-6.817c0.04-4.197,2.814-6.956,7.023-6.996
	c0.713-0.008,1.422,0,2.266,0c0.053-2.704-0.061-5.309,1.957-7.355c2.034-2.066,4.604-2.066,7.455-1.961
	c-0.515-6.608,2.341-9.989,9.391-9.284c0-0.945-0.003-1.745,0-2.544c0-3.319,1.225-6.133,3.525-8.49
	c1.116-1.152,2.209-2.328,3.409-3.382c0.732-0.647,0.803-1.251,0.548-2.149c-3.859-13.427,1.823-27.429,14.016-34.179
	c8.258-4.573,16.865-4.99,25.683-1.628c0.646,0.242,1.522,0.323,2.147,0.088c11.975-4.484,22.679-2.441,32.159,6.126
	c0.147,0.139,0.307,0.27,0.567,0.498c2.144-2.737,3.529-5.794,4.371-9.092c3.689-14.486-5.649-29.405-20.205-32.327
	c-14.867-2.979-29.096,6.792-31.483,21.654c-0.215,1.318-0.253,2.67-0.35,4.004c-0.166,2.24-1.5,3.585-3.5,3.5
	c-1.914-0.079-3.146-1.513-3.158-3.675c-0.1-15.225,11.719-29.351,26.801-32.034c1.06-0.188,2.112-0.408,3.171-0.606H149.083
	L149.083,46.905z M162.813,100.613c-4.015-4.555-10.396-7.359-16.437-7.45c-10.773-0.155-20.197,7.09-22.853,17.588
	c-2.63,10.361,2.215,21.352,11.912,26.026c3.141,1.521,4.437,3.395,3.958,6.695c-0.021,0.15-0.002,0.308-0.002,0.462
	c0.07,8.343-0.782,6.601,5.109,12.521c2.023,2.037,2.008,3.665-0.026,5.721c-1.22,1.235-2.449,2.458-3.828,3.841
	c1.295,1.213,2.446,2.252,3.543,3.342c2.44,2.424,2.448,3.869,0.042,6.262c-1.152,1.143-2.342,2.252-3.442,3.3
	c0.169,0.331,0.181,0.392,0.218,0.425c1.226,1.25,2.469,2.49,3.688,3.747c1.73,1.784,1.757,3.513,0.012,5.271
	c-1.311,1.314-2.686,2.554-3.811,3.617c1.881,1.917,3.561,3.634,5.322,5.434c1.188-1.207,2.385-2.567,3.734-3.76
	c1.925-1.695,2.666-3.708,2.65-6.287c-0.083-15.182-0.024-30.365-0.065-45.551c-0.007-2.182,0.795-3.555,2.856-4.414
	c3.699-1.537,6.705-4.031,9.114-7.229c5.257-6.975,6.15-17.29,2.01-24.22c-0.417,0.292-0.807,0.628-1.248,0.86
	c-2.629,1.409-5.231,2.878-7.931,4.139c-1.045,0.491-1.691,0.936-2.097,2.109c-1.781,5.212-7.558,7.858-12.706,5.952
	c-5.086-1.886-7.723-7.548-5.884-12.649c1.871-5.188,7.557-7.845,12.733-5.962c2.326,0.841,4.011,2.448,5.481,4.728
	C157.542,103.612,160.115,102.146,162.813,100.613 M126.446,138.807c-6.714-6.212-10.208-13.631-10.199-22.531
	c0.007-8.888,3.584-16.264,10.172-22.414c-3.214-0.804-6.227-0.864-9.23-0.286c-14.674,2.832-22.744,17.252-17.475,31.236
	c0.688,1.816,0.452,3.269-0.971,4.616c-1.8,1.705-3.676,3.367-5.21,5.293c-0.905,1.125-1.45,2.693-1.711,4.141
	c-0.287,1.599-0.061,3.294-0.068,4.945c-0.017,2.652-1.209,3.832-3.906,3.844c-1.782,0.008-3.568,0-5.417,0
	c0,2.006,0.01,3.761-0.003,5.512c-0.019,2.59-1.214,3.804-3.786,3.832c-1.795,0.019-3.588,0.007-5.551,0.007
	c0,1.868,0.006,3.562,0,5.255c-0.013,2.936-1.184,4.093-4.159,4.113c-1.677,0.012-3.362,0.004-5.083,0.004v7.392
	c2.122,0,4.126-0.055,6.129,0.015c2.159,0.086,3.843-0.699,5.37-2.229c10.74-10.802,21.551-21.539,32.273-32.359
	c1.677-1.69,3.246-2.158,5.507-1.243C117.345,139.646,121.732,139.868,126.446,138.807 M145.982,112.974
	c1.794,0.001,3.266-1.418,3.31-3.194c0.046-1.816-1.491-3.379-3.317-3.372c-1.822,0.006-3.359,1.574-3.312,3.379
	C142.713,111.559,144.183,112.971,145.982,112.974"/>
<path fill="#466982" stroke="#FFFFFF" stroke-width="0.516" stroke-miterlimit="10" d="M149.083,46.905
	c1.858,0.391,3.745,0.683,5.575,1.187c22.521,6.195,31.743,32.979,17.781,51.684c-0.732,0.983-0.781,1.628-0.203,2.707
	c7.577,14.092,2.49,31.674-11.484,39.582c-1.234,0.701-1.559,1.457-1.553,2.782c0.044,14.357,0.006,28.715,0.04,43.069
	c0.006,3.876-1.247,7.156-4.068,9.848c-1.493,1.427-2.909,2.933-4.392,4.373c-2.885,2.798-6.797,2.769-9.673-0.063
	c-1.581-1.559-3.145-3.135-4.709-4.714c-3.057-3.093-3.072-6.909-0.006-9.984c0.509-0.508,1.134-0.888,1.823-1.43
	c-2.163-2.102-4.101-3.88-4.085-6.853c0.019-2.926,1.9-4.672,3.868-6.572c-1.912-1.869-3.871-3.634-3.868-6.607
	c0.003-2.976,1.936-4.754,3.965-6.715c-5.388-3.876-5.747-9.448-5.316-15.162c-2.906,0.626-5.593,1.316-8.319,1.763
	c-3.882,0.643-7.727,0.178-11.479-0.939c-0.972-0.29-1.559-0.106-2.272,0.605c-10.27,10.325-20.592,20.595-30.863,30.923
	c-2.748,2.763-5.985,4.109-9.859,4.043c-2.018-0.028-4.032,0.031-6.046-0.013c-4.025-0.08-6.792-2.861-6.85-6.862
	c-0.038-2.274-0.024-4.548-0.003-6.817c0.04-4.197,2.814-6.956,7.023-6.996c0.713-0.008,1.422,0,2.266,0
	c0.053-2.704-0.061-5.309,1.957-7.355c2.034-2.066,4.604-2.066,7.455-1.961c-0.515-6.608,2.341-9.989,9.391-9.284
	c0-0.945-0.003-1.745,0-2.544c0-3.319,1.225-6.133,3.525-8.49c1.116-1.152,2.209-2.328,3.409-3.382
	c0.732-0.647,0.803-1.251,0.548-2.149c-3.859-13.427,1.823-27.429,14.016-34.179c8.258-4.573,16.865-4.99,25.683-1.628
	c0.646,0.242,1.522,0.323,2.147,0.088c11.975-4.484,22.679-2.441,32.159,6.126c0.147,0.139,0.307,0.27,0.567,0.498
	c2.144-2.737,3.529-5.794,4.371-9.092c3.689-14.486-5.649-29.405-20.205-32.327c-14.867-2.979-29.096,6.792-31.483,21.654
	c-0.215,1.318-0.253,2.67-0.35,4.004c-0.166,2.24-1.5,3.585-3.5,3.5c-1.914-0.079-3.146-1.513-3.158-3.675
	c-0.1-15.225,11.719-29.351,26.801-32.034c1.06-0.188,2.112-0.408,3.171-0.606H149.083L149.083,46.905z M162.813,100.613
	c-4.015-4.555-10.396-7.359-16.437-7.45c-10.773-0.155-20.197,7.09-22.853,17.588c-2.63,10.361,2.215,21.352,11.912,26.026
	c3.141,1.521,4.437,3.395,3.958,6.695c-0.021,0.15-0.002,0.308-0.002,0.462c0.07,8.343-0.782,6.601,5.109,12.521
	c2.023,2.037,2.008,3.665-0.026,5.721c-1.22,1.235-2.449,2.458-3.828,3.841c1.295,1.213,2.446,2.252,3.543,3.342
	c2.44,2.424,2.448,3.869,0.042,6.262c-1.152,1.143-2.342,2.252-3.442,3.3c0.169,0.331,0.181,0.392,0.218,0.425
	c1.226,1.25,2.469,2.49,3.688,3.747c1.73,1.784,1.757,3.513,0.012,5.271c-1.311,1.314-2.686,2.554-3.811,3.617
	c1.881,1.917,3.561,3.634,5.322,5.434c1.188-1.207,2.385-2.567,3.734-3.76c1.925-1.695,2.666-3.708,2.65-6.287
	c-0.083-15.182-0.024-30.365-0.065-45.551c-0.007-2.182,0.795-3.555,2.856-4.414c3.699-1.537,6.705-4.031,9.114-7.229
	c5.257-6.975,6.15-17.29,2.01-24.22c-0.417,0.292-0.807,0.628-1.248,0.86c-2.629,1.409-5.231,2.878-7.931,4.139
	c-1.045,0.491-1.691,0.936-2.097,2.109c-1.781,5.212-7.558,7.858-12.706,5.952c-5.086-1.886-7.723-7.548-5.884-12.649
	c1.871-5.188,7.557-7.845,12.733-5.962c2.326,0.841,4.011,2.448,5.481,4.728C157.542,103.612,160.115,102.146,162.813,100.613z
	 M126.446,138.807c-6.714-6.212-10.208-13.631-10.199-22.531c0.007-8.888,3.584-16.264,10.172-22.414
	c-3.214-0.804-6.227-0.864-9.23-0.286c-14.674,2.832-22.744,17.252-17.475,31.236c0.688,1.816,0.452,3.269-0.971,4.616
	c-1.8,1.705-3.676,3.367-5.21,5.293c-0.905,1.125-1.45,2.693-1.711,4.141c-0.287,1.599-0.061,3.294-0.068,4.945
	c-0.017,2.652-1.209,3.832-3.906,3.844c-1.782,0.008-3.568,0-5.417,0c0,2.006,0.01,3.761-0.003,5.512
	c-0.019,2.59-1.214,3.804-3.786,3.832c-1.795,0.019-3.588,0.007-5.551,0.007c0,1.868,0.006,3.562,0,5.255
	c-0.013,2.936-1.184,4.093-4.159,4.113c-1.677,0.012-3.362,0.004-5.083,0.004v7.392c2.122,0,4.126-0.055,6.129,0.015
	c2.159,0.086,3.843-0.699,5.37-2.229c10.74-10.802,21.551-21.539,32.273-32.359c1.677-1.69,3.246-2.158,5.507-1.243
	C117.345,139.646,121.732,139.868,126.446,138.807z M145.982,112.974c1.794,0.001,3.266-1.418,3.31-3.194
	c0.046-1.816-1.491-3.379-3.317-3.372c-1.822,0.006-3.359,1.574-3.312,3.379C142.713,111.559,144.183,112.971,145.982,112.974z"/>
</svg>
