<?xml version="1.0" encoding="UTF-8"?>
<svg width="250px" height="41px" viewBox="0 0 250 41" version="1.1" xmlns="http://www.w3.org/2000/svg" xmlns:xlink="http://www.w3.org/1999/xlink">
    <title>Luxury Estate</title>
    <g id="logo" stroke="none" stroke-width="1" fill="none" fill-rule="evenodd">
        <g id="LE">
            <path d="M245.732502,5.28658293 C245.960831,5.67191296 246.341385,6.42057151 246.897072,7.57195826 C249.011296,12.0681586 250.004276,16.535881 249.871592,20.9656239 C249.765898,25.7295348 248.390175,30.4876742 245.751455,35.2321956 L245.03891,36.5340141 C244.039432,38.1868537 243.194427,39.4374675 242.500016,40.2893218 C242.405062,40.4058054 242.26275,40.4734014 242.112467,40.4734014 L7.74804723,40.4734014 C7.59350355,40.4734014 7.44764514,40.4019365 7.35293719,40.279813 C6.48069786,39.1550822 5.64908756,37.9037704 4.85495108,36.5216388 C4.8039041,36.4314806 4.76240829,36.3557692 4.67595475,36.1962546 C4.63880765,36.1289918 4.59971657,36.0638252 4.53610831,35.9623974 L4.14955549,35.2334484 C1.53613846,30.4874199 0.160694612,25.7309345 0.0280492167,20.969412 C-0.103939124,16.5358489 0.889028267,12.0681816 2.99423996,7.59042342 C3.28953039,6.89025701 3.67687728,6.12882887 4.1662804,5.28897783 L7.3267851,0.345581607 C7.41866655,0.201868364 7.57747263,0.114910806 7.74804723,0.114910806 L242.112467,0.114910806 C242.282031,0.114910806 242.44004,0.20084779 242.532189,0.343186705 L245.732502,5.28658293 Z M241.84053,1.11491081 L8.02180846,1.11491081 L5.01965847,5.80985388 C4.56150549,6.59688504 4.19327595,7.32073318 3.90744719,7.99742066 C1.8589702,12.3554331 0.900442428,16.6681459 1.02763389,20.9406099 C1.15571105,25.5381165 2.48648323,30.1401207 5.02925888,34.7579903 L5.39696924,35.4555054 C5.4511616,35.5388266 5.50261597,35.6246034 5.55321116,35.7162486 C5.63861758,35.8737993 5.67813933,35.9459089 5.7235818,36.0261888 C6.44842604,37.2877045 7.20508342,38.4363076 7.9944304,39.4734014 L241.872257,39.4734014 C242.505615,38.668271 243.276495,37.5160459 244.172379,36.0353619 L244.875814,34.7492466 C247.439783,30.1391046 248.769885,25.5387537 248.871939,20.9395654 C248.999867,16.6681139 248.041352,12.3554562 245.994304,8.00205659 C245.457679,6.89022395 245.087079,6.16067866 244.887405,5.82129716 L241.84053,1.11491081 Z" id="Combined-Shape" fill="#FFFFFF"></path>
            <path d="M146.305186,29.8854974 L132.760055,29.8854974 L132.760055,29.1602144 L135.330453,28.1285163 L135.330453,12.3458748 L132.760055,11.3141767 L132.760055,10.5896484 L146.10302,10.5896484 L146.10302,15.7828559 L145.380998,15.7828559 L143.965835,12.6002144 L137.929732,12.6002144 L137.929732,19.1058748 L142.147121,19.1058748 L143.157951,16.4817238 L143.79255,16.4817238 L143.79255,23.6854974 L143.157951,23.6854974 L142.147121,21.1164408 L137.900851,21.1164408 L137.900851,27.8190823 L144.225763,27.8190823 L146.045258,24.6349314 L146.768061,24.6349314 L146.305186,29.8854974 Z M160.802763,12.8793087 C160.493659,12.7110069 160.101816,12.5494974 159.628794,12.3902521 C159.154991,12.2325163 158.482926,12.1525163 157.613377,12.1525163 C157.110694,12.1525163 156.631427,12.2136484 156.177139,12.3344031 C155.72285,12.4559125 155.322421,12.6423276 154.973509,12.8928937 C154.625377,13.1449691 154.350618,13.4513842 154.147672,13.8144031 C153.943944,14.1781767 153.843252,14.6106295 153.843252,15.1125163 C153.843252,15.8581767 154.073518,16.462705 154.536393,16.9283654 C154.997706,17.393271 155.576104,17.8030823 156.268465,18.1562899 C156.962386,18.5102521 157.707825,18.8506295 158.507123,19.1766672 C159.30564,19.5019503 160.05264,19.8928937 160.745781,20.347988 C161.438142,20.8053465 162.01654,21.377422 162.477853,22.0664786 C162.939947,22.7555352 163.171775,23.6294974 163.171775,24.6906295 C163.171775,25.5472333 163.007076,26.3155352 162.6808,26.9947804 C162.352963,27.6747804 161.904919,28.2513842 161.33823,28.7261012 C160.769198,29.2008182 160.095571,29.563837 159.316568,29.8151578 C158.536004,30.0664786 157.703142,30.1917616 156.817982,30.1917616 C156.008537,30.1917616 155.301346,30.1404408 154.694847,30.038554 C154.088349,29.9366672 153.558346,29.8061012 153.107179,29.6483654 C152.654452,29.4898748 152.272756,29.3268559 151.965994,29.158554 C151.656891,28.9917616 151.397744,28.8340257 151.186211,28.683837 L151.186211,24.3283654 L151.939455,24.3283654 L153.126694,27.5396861 C153.455311,27.7442144 153.893988,27.9117616 154.445067,28.0423276 C154.996145,28.1728937 155.724411,28.2377993 156.631427,28.2377993 C157.076349,28.2377993 157.530637,28.177422 157.993512,28.0559125 C158.456386,27.9351578 158.881794,27.7487427 159.268173,27.497422 C159.654552,27.2461012 159.973803,26.9162899 160.224364,26.5064786 C160.474926,26.097422 160.601377,25.6030823 160.601377,25.0264786 C160.601377,24.2445918 160.368769,23.6068559 159.905894,23.1140257 C159.441458,22.6196861 158.866963,22.1925163 158.182408,21.8287427 C157.496292,21.4657238 156.747731,21.1215729 155.936725,20.7955352 C155.125719,20.4710069 154.377158,20.0740257 153.691822,19.6083654 C153.006487,19.1442144 152.431211,18.5661012 151.968336,17.8777993 C151.5039,17.1894974 151.272853,16.2951578 151.272853,15.1962899 C151.272853,14.377422 151.446919,13.6604408 151.79427,13.0468559 C152.140841,12.4325163 152.599813,11.9155352 153.169625,11.4966672 C153.739437,11.0777993 154.391208,10.7661012 155.125719,10.5615729 C155.858668,10.3570446 156.62206,10.2536484 157.413552,10.2536484 C158.205045,10.2536484 158.891161,10.2959125 159.470339,10.3789314 C160.049518,10.4634597 160.546737,10.5706295 160.961217,10.7004408 C161.374916,10.8317616 161.731634,10.9766672 162.03059,11.1336484 C162.328766,11.2913842 162.594158,11.4461012 162.824424,11.5947804 L162.824424,16.0347804 L162.074302,16.0347804 L160.802763,12.8793087 Z M180.239905,16.090554 L178.854404,12.599988 L174.811081,12.599988 L174.811081,28.125271 L177.958316,29.1584786 L177.958316,29.885271 L169.120768,29.885271 L169.120768,29.1584786 L172.239902,28.1531955 L172.239902,12.599988 L168.109937,12.599988 L166.723655,16.090554 L165.91499,16.090554 L165.91499,10.589422 L181.019689,10.589422 L181.019689,16.090554 L180.239905,16.090554 Z M182.607903,28.097422 L190.347979,10.5615729 L192.716991,10.5615729 L199.93721,28.0702521 L202.2188,29.158554 L202.2188,29.8853465 L194.854176,29.8853465 L194.854176,29.158554 L197.164646,28.0702521 L195.374032,23.462705 L187.142982,23.462705 L187.114101,23.518554 L185.352367,28.0702521 L187.662837,29.158554 L187.662837,29.8853465 L180.355975,29.8853465 L180.355975,29.158554 L182.607903,28.097422 Z M192.283778,15.8672333 C192.186988,15.662705 192.085515,15.4061012 191.980138,15.0989314 C191.874762,14.7917616 191.773289,14.4845918 191.677279,14.1781767 C191.580489,13.8702521 191.49853,13.6008182 191.431402,13.3668559 C191.363493,13.1351578 191.320562,12.9910069 191.301828,12.9351578 C191.301828,12.9540257 191.267483,13.0604408 191.200355,13.2559125 C191.132446,13.4513842 191.056731,13.6936484 190.969308,13.9819503 C190.882665,14.2710069 190.781972,14.582705 190.666449,14.9177993 C190.550145,15.2528937 190.435402,15.5600635 190.319098,15.8393087 L187.979747,21.4521389 L194.536486,21.4521389 L192.283778,15.8672333 Z M216.283787,16.090554 L214.898286,12.599988 L210.854963,12.599988 L210.854963,28.125271 L214.002198,29.1584786 L214.002198,29.885271 L205.16543,29.885271 L205.16543,29.1584786 L208.283784,28.1531955 L208.283784,12.599988 L204.153819,12.599988 L202.768317,16.090554 L201.958872,16.090554 L201.958872,10.589422 L217.063571,10.589422 L217.063571,16.090554 L216.283787,16.090554 Z M232.832686,29.8854974 L219.287555,29.8854974 L219.287555,29.1602144 L221.857953,28.1285163 L221.857953,12.3458748 L219.287555,11.3141767 L219.287555,10.5896484 L232.62974,10.5896484 L232.62974,15.7828559 L231.907718,15.7828559 L230.493335,12.6002144 L224.457232,12.6002144 L224.457232,19.1058748 L228.67384,19.1058748 L229.684671,16.4817238 L230.319269,16.4817238 L230.319269,23.6854974 L229.684671,23.6854974 L228.67384,21.1164408 L224.42757,21.1164408 L224.42757,27.8190823 L230.753263,27.8190823 L232.572758,24.6349314 L233.29478,24.6349314 L232.832686,29.8854974 Z" id="Combined-Shape" fill="#FFFFFF"></path>
            <path d="M29.1146064,29.8755426 L15.7138791,29.8755426 L15.7138791,29.1487501 L18.2842772,28.1155426 L18.2842772,12.3110143 L15.7138791,11.277052 L15.7138791,10.5510143 L23.3961926,10.5510143 L23.3961926,11.2785615 L20.8546753,12.3132785 L20.8546753,27.8649766 L26.9196597,27.8649766 L28.8257976,24.2627124 L29.5767004,24.2627124 L29.1146064,29.8755426 Z M35.8435387,23.1449766 C35.8240246,24.821203 36.1885481,26.0868634 36.9378898,26.9434671 C37.6864509,27.8000709 38.9533067,28.2272407 40.7392377,28.2272407 C41.7180653,28.2272407 42.533755,28.0876181 43.1870873,27.8091275 C43.839639,27.5298822 44.3673004,27.1336558 44.7708521,26.6219577 C45.1736233,26.1102596 45.4616515,25.5004483 45.6341562,24.7932785 C45.8074415,24.0853539 45.8940841,23.3042218 45.8940841,22.4476181 L45.8940841,12.3110143 L43.4103286,11.277052 L43.4103286,10.5510143 L50.8038333,10.5510143 L50.8038333,11.277052 L48.2334352,12.3110143 L48.2334352,18.8174294 C48.2334352,19.9713917 48.242802,21.106486 48.2623161,22.2234671 C48.2623161,23.4898822 48.1179117,24.6113917 47.8291029,25.5887501 C47.5402942,26.5661086 47.0922503,27.3993162 46.4857518,28.0876181 C45.8792534,28.7774294 45.0994697,29.2981841 44.1464007,29.6513917 C43.1941123,30.0053539 42.04278,30.1819577 40.6955261,30.1819577 C38.0962471,30.1819577 36.199476,29.5638445 35.0059932,28.3245992 C33.8117299,27.0876181 33.2341123,25.2491275 33.2731405,22.8106369 L33.2731405,12.3110143 L30.7605042,11.277052 L30.7605042,10.5510143 L38.4139368,10.5510143 L38.4139368,11.277052 L35.8435387,12.3110143 L35.8435387,23.1449766 Z M57.7351659,12.3386369 L60.4788493,16.1635426 C60.7098963,16.4993917 60.9120625,16.7975049 61.0853478,17.0578822 C61.258633,17.3190143 61.4124042,17.5424105 61.5474418,17.7280709 C61.6816989,17.9325992 61.8073697,18.1288256 61.9228932,18.314486 C62.0384167,18.0910898 62.1828211,17.8586369 62.3561064,17.6156181 C62.5098775,17.4118445 62.6784794,17.1741086 62.8611315,16.90392 C63.0445641,16.6337313 63.2514136,16.3416558 63.4824606,16.0246747 L66.226144,12.3386369 L64.1756017,11.3054294 L64.1756017,10.5793917 L71.424702,10.5793917 L71.424702,11.3054294 L69.1142318,12.3386369 L63.3380562,19.8224105 L69.7496111,28.1431652 L71.9734387,29.1484483 L71.9734387,29.8752407 L64.3200061,29.8752407 L64.3200061,29.1484483 L66.6593572,28.1152407 L63.3380562,23.7318445 C63.067981,23.3778822 62.836934,23.0571275 62.6449152,22.7680709 C62.4521158,22.4805237 62.2983446,22.2329766 62.1828211,22.0284483 C62.0282694,21.805052 61.9127459,21.599769 61.8362506,21.4141086 C61.7394606,21.5816558 61.6145703,21.7680709 61.4607992,21.9725992 C61.3257616,22.1590143 61.1571597,22.3959954 60.9557741,22.685052 C60.7528274,22.9733539 60.5077302,23.3129766 60.2189214,23.70392 L57.0709058,28.1152407 L59.3236142,29.1484483 L59.3236142,29.8752407 L52.0167521,29.8752407 L52.0167521,29.1484483 L54.182818,28.1718445 L60.3055641,19.9627879 L54.6160311,12.3107124 L52.4210844,11.3054294 L52.4210844,10.5793917 L59.7857083,10.5793917 L59.7857083,11.3054294 L57.7351659,12.3386369 Z M78.2691578,23.1449766 C78.2496437,24.821203 78.6141672,26.0868634 79.3635089,26.9434671 C80.11207,27.8000709 81.3789258,28.2272407 83.1648569,28.2272407 C84.1436844,28.2272407 84.9593741,28.0876181 85.6127064,27.8091275 C86.2652581,27.5298822 86.7929195,27.1336558 87.1964713,26.6219577 C87.5992424,26.1102596 87.8872706,25.5004483 88.0597753,24.7932785 C88.2330606,24.0853539 88.3197032,23.3042218 88.3197032,22.4476181 L88.3197032,12.3110143 L85.8359478,11.277052 L85.8359478,10.5510143 L93.2294525,10.5510143 L93.2294525,11.277052 L90.6590543,12.3110143 L90.6590543,18.8174294 C90.6590543,19.9713917 90.6684211,21.106486 90.6879352,22.2234671 C90.6879352,23.4898822 90.5435308,24.6113917 90.2547221,25.5887501 C89.9659133,26.5661086 89.5178694,27.3993162 88.911371,28.0876181 C88.3048725,28.7774294 87.5250888,29.2981841 86.5720199,29.6513917 C85.6189509,30.0053539 84.4683992,30.1819577 83.1211453,30.1819577 C80.5218663,30.1819577 78.6250951,29.5638445 77.4316123,28.3245992 C76.237349,27.0876181 75.6597315,25.2491275 75.6987597,22.8106369 L75.6987597,12.3110143 L73.1861233,11.277052 L73.1861233,10.5510143 L80.8395559,10.5510143 L80.8395559,11.277052 L78.2691578,12.3110143 L78.2691578,23.1449766 Z M110.182059,15.6328256 C110.182059,16.509052 110.075903,17.2350898 109.86437,17.8116935 C109.652056,18.389052 109.353881,18.8728256 108.969062,19.263769 C108.583464,19.6547124 108.131517,19.9671652 107.611661,20.1996181 C107.091805,20.4328256 106.532921,20.6230143 105.93657,20.7716935 L109.719965,28.1158445 L112.030436,29.149052 L112.030436,29.8758445 L107.929351,29.8758445 L103.135125,21.0788634 L100.420323,21.0788634 L100.420323,28.1158445 L102.96184,29.149052 L102.96184,29.8758445 L95.3084073,29.8758445 L95.3084073,29.149052 L97.8788054,28.1158445 L97.8499246,12.3105615 L95.3084073,11.3052785 L95.3084073,10.5792407 L103.857147,10.5513162 C104.106928,10.5513162 104.438668,10.5467879 104.853147,10.5369766 C105.267627,10.5286747 105.710207,10.5565992 106.181668,10.6215049 C106.653128,10.6864105 107.12537,10.8071652 107.596831,10.983769 C108.068291,11.1611275 108.496821,11.4358445 108.88242,11.80792 C109.267238,12.1807501 109.580244,12.6781086 109.821439,13.3022596 C110.061852,13.9264105 110.182059,14.7030143 110.182059,15.6328256 Z M100.420323,19.263769 L102.914226,19.263769 C103.512918,19.263769 104.092878,19.2403728 104.653323,19.1943351 C105.213768,19.1475426 105.712548,19.00792 106.147323,18.7754671 C106.582097,18.5430143 106.934912,18.189052 107.204987,17.7143351 C107.476624,17.2388634 107.611661,16.5649011 107.611661,15.6894294 C107.611661,14.8516935 107.480526,14.2003728 107.219818,13.7347124 C106.95911,13.2698068 106.625809,12.9256558 106.219135,12.7015049 C105.813241,12.4788634 105.354269,12.338486 104.842219,12.2826369 C104.330169,12.2267879 103.832169,12.1988634 103.349,12.1988634 C102.788555,12.1988634 102.217962,12.2033917 101.638003,12.213203 C101.058044,12.2222596 100.65215,12.2365992 100.420323,12.2547124 L100.420323,19.263769 Z M130.485004,12.3386369 L123.813521,20.8556181 L123.842402,28.1152407 L127.077841,29.1484483 L127.077841,29.8752407 L118.066227,29.8752407 L118.066227,29.1484483 L121.300885,28.1152407 L121.300885,21.0510898 L114.773807,12.3386369 L112.521098,11.3054294 L112.521098,10.5793917 L119.972365,10.5793917 L119.972365,11.3054294 L117.864061,12.3386369 L121.069838,16.7227879 C121.512418,17.3559954 121.878503,17.8865615 122.167311,18.314486 C122.45612,18.7424105 122.619258,19.0027879 122.658286,19.0956181 C122.696534,19.0216558 122.889333,18.7288256 123.235904,18.2171275 C123.582474,17.7046747 123.97744,17.1514671 124.42002,16.5552407 L127.539935,12.4503351 L127.597697,12.3386369 L125.489393,11.3054294 L125.489393,10.5793917 L132.709612,10.5793917 L132.709612,11.3054294 L130.485004,12.3386369 Z" id="Combined-Shape" fill="#FFD35B"></path>
        </g>
    </g>
</svg>